<?xml version="1.0" encoding="UTF-8"?>
<svg xmlns="http://www.w3.org/2000/svg" viewBox="0 0 24 24" width="24" height="24" fill="none">
  <!-- Transparent background glyph-only WhatsApp icon -->
  <path fill="#FFFFFF" d="M12 2C6.48 2 2 6.18 2 11.5c0 2.04.67 3.93 1.81 5.48L2 22l5.2-1.67c1.49.82 3.19 1.27 4.8 1.27 5.52 0 10-4.18 10-9.5S17.52 2 12 2zm0 17.2c-1.47 0-2.92-.4-4.18-1.16l-.3-.18-3.08 1 1-2.99-.2-.31A7.32 7.32 0 014.8 11.5c0-4.02 3.23-7.28 7.2-7.28s7.2 3.26 7.2 7.28-3.23 7.2-7.2 7.2zm4.02-4.23c-.22-.12-1.3-.64-1.5-.71-.2-.07-.34-.11-.49.12-.14.22-.56.71-.69.85-.13.15-.25.16-.47.06-.22-.1-.91-.33-1.73-1.06-.64-.56-1.07-1.25-1.2-1.46-.13-.22-.01-.34.1-.46.1-.1.22-.26.33-.39.11-.13.15-.22.22-.37.07-.15.04-.28-.02-.4-.06-.12-.49-1.18-.67-1.62-.18-.44-.36-.36-.49-.36-.12 0-.26-.01-.4-.01-.15 0-.4.06-.61.28-.21.22-.8.78-.8 1.9s.82 2.2.93 2.35c.11.15 1.62 2.46 3.93 3.35.55.24.98.38 1.31.49.55.17 1.05.15 1.45.09.44-.07 1.3-.53 1.48-1.04.18-.51.18-.94.12-1.03-.06-.09-.2-.15-.42-.27z"/>
</svg>