<svg xmlns="http://www.w3.org/2000/svg" xmlns:xlink="http://www.w3.org/1999/xlink" width="2000" zoomAndPan="magnify" viewBox="0 0 1500 1499.999933" height="2000" preserveAspectRatio="xMidYMid meet" version="1.0"><defs><clipPath id="0b11937bb8"><path d="M 153.273438 150 L 1346.523438 150 L 1346.523438 1350 L 153.273438 1350 Z M 153.273438 150 " clip-rule="nonzero"/></clipPath></defs><g clip-path="url(#0b11937bb8)"><path fill="#ffffff" d="M 1172.714844 324.851562 C 1060.542969 212.5625 911.375 150.609375 752.429688 150.609375 C 424.925781 150.609375 158.371094 417.101562 158.253906 744.722656 C 158.253906 849.425781 185.585938 951.695312 237.578125 1041.75 L 153.273438 1349.628906 L 468.265625 1266.984375 C 555.0625 1314.355469 652.765625 1339.253906 752.191406 1339.3125 L 752.429688 1339.3125 C 1079.871094 1339.3125 1346.484375 1072.757812 1346.542969 745.199219 C 1346.542969 586.425781 1284.886719 437.203125 1172.65625 324.851562 Z M 752.429688 1239 L 752.25 1239 C 663.675781 1239 576.699219 1215.167969 500.871094 1170.167969 L 482.851562 1159.4375 L 295.917969 1208.46875 L 345.777344 1026.21875 L 334.039062 1007.542969 C 284.59375 928.929688 258.507812 838.042969 258.566406 744.722656 C 258.683594 472.476562 480.242188 250.921875 752.605469 250.921875 C 884.519531 250.921875 1008.488281 302.382812 1101.746094 395.757812 C 1195.007812 489.078125 1246.289062 613.164062 1246.230469 745.136719 C 1246.113281 1017.445312 1024.554688 1239 752.367188 1239 Z M 1023.3125 869.167969 C 1008.488281 861.757812 935.507812 825.828125 921.871094 820.90625 C 908.234375 815.925781 898.394531 813.496094 888.492188 828.316406 C 878.589844 843.199219 850.132812 876.636719 841.476562 886.539062 C 832.820312 896.4375 824.164062 897.683594 809.285156 890.214844 C 794.460938 882.804688 746.617188 867.09375 689.878906 816.519531 C 645.769531 777.152344 615.949219 728.539062 607.292969 713.65625 C 598.636719 698.777344 606.402344 690.773438 613.816406 683.359375 C 620.453125 676.722656 628.636719 665.988281 636.105469 657.335938 C 643.519531 648.679688 646.007812 642.453125 650.929688 632.550781 C 655.910156 622.652344 653.417969 613.996094 649.683594 606.523438 C 645.949219 599.113281 616.304688 526.011719 603.914062 496.308594 C 591.878906 467.378906 579.605469 471.292969 570.535156 470.816406 C 561.878906 470.402344 551.976562 470.285156 542.078125 470.285156 C 532.175781 470.285156 516.109375 473.960938 502.472656 488.839844 C 488.835938 503.722656 450.539062 539.648438 450.539062 612.691406 C 450.539062 685.734375 503.71875 756.34375 511.1875 766.304688 C 518.601562 776.203125 615.890625 926.140625 764.820312 990.46875 C 800.214844 1005.765625 827.902344 1014.894531 849.480469 1021.773438 C 885.054688 1033.097656 917.425781 1031.496094 942.976562 1027.640625 C 971.492188 1023.371094 1030.78125 991.714844 1043.171875 957.03125 C 1055.5625 922.347656 1055.5625 892.644531 1051.828125 886.417969 C 1048.09375 880.195312 1038.191406 876.519531 1023.371094 869.046875 Z M 1023.3125 869.167969 " fill-opacity="1" fill-rule="evenodd"/></g></svg>